<svg id="be362a24-df3c-4f6c-8503-e75c9b4a76da" data-name="Icon" xmlns="http://www.w3.org/2000/svg" viewBox="0 0 112 112">
  <title>sp-icon-misc-lightning-fast</title>
  <g>
    <line x1="34.431" y1="62.829" x2="42.709" y2="62.829" fill="none" stroke="#787a85" stroke-linecap="round" stroke-linejoin="round"/>
    <line x1="34.431" y1="58.08" x2="52.793" y2="58.08" fill="none" stroke="#787a85" stroke-linecap="round" stroke-linejoin="round"/>
    <polyline points="34.431 35.282 34.431 31.457 77.569 31.457 77.569 34.771" fill="none" stroke="#787a85" stroke-linecap="round" stroke-linejoin="round"/>
    <polyline points="56.326 53.836 34.431 53.836 34.431 48.666" fill="none" stroke="#787a85" stroke-linecap="round" stroke-linejoin="round"/>
    <line x1="93" y1="27.662" x2="19" y2="27.662" fill="none" stroke="#787a85" stroke-linecap="round" stroke-linejoin="round"/>
    <polyline points="83.039 76.514 93 76.514 93 23.468 19 23.468 19 76.514 63.143 76.514" fill="none" stroke="#e88b2e" stroke-linecap="round" stroke-linejoin="round" stroke-width="2"/>
    <line x1="54.469" y1="45.968" x2="38.57" y2="42.921" fill="none" stroke="#e88b2e" stroke-linecap="round" stroke-linejoin="round"/>
    <line x1="56.477" y1="61.187" x2="52.794" y2="63.589" fill="none" stroke="#e88b2e" stroke-linecap="round" stroke-linejoin="round"/>
    <circle cx="49.445" cy="65.774" r="4" fill="none" stroke="#e88b2e" stroke-linecap="round" stroke-linejoin="round"/>
    <circle cx="34.431" cy="42.128" r="4" fill="none" stroke="#e88b2e" stroke-linecap="round" stroke-linejoin="round"/>
    <line x1="34.431" y1="67.579" x2="41.709" y2="67.579" fill="none" stroke="#787a85" stroke-linecap="round" stroke-linejoin="round"/>
    <line x1="56.896" y1="67.579" x2="62.231" y2="67.579" fill="none" stroke="#787a85" stroke-linecap="round" stroke-linejoin="round"/>
    <line x1="34.431" y1="72.329" x2="64.522" y2="72.329" fill="none" stroke="#787a85" stroke-linecap="round" stroke-linejoin="round"/>
    <path d="M72.671,34.019a16.607,16.607,0,0,0-16.487,16.69c0,6.632,4.223,13.116,6.972,18.686,4.45,9.019,5.013,9.451,9.515,19.137,5.255-10.884,5.255-10.884,9.514-19.137,3.039-5.889,6.971-12.42,6.971-18.686a16.607,16.607,0,0,0-16.485-16.69Z" fill="none" stroke="#787a85" stroke-linecap="round" stroke-linejoin="round"/>
    <path id="b9efacae-41a6-45a5-afc2-c66f70789016" data-name="path3870" d="M76.278,40.911,64.855,53.248a.228.228,0,0,0,.167.382H70.84l-2.716,9.763a.209.209,0,0,0,.357.2l12.006-13.4a.228.228,0,0,0-.17-.379H73.9l2.734-8.695A.208.208,0,0,0,76.278,40.911Z" fill="none" stroke="#e88b2e" stroke-linecap="round" stroke-linejoin="round" stroke-width="2"/>
  </g>
</svg>
