<?xml version="1.0" encoding="UTF-8"?>
<!-- Generator: Adobe Illustrator 22.1.0, SVG Export Plug-In . SVG Version: 6.00 Build 0)  -->
<svg xmlns="http://www.w3.org/2000/svg" xmlns:xlink="http://www.w3.org/1999/xlink" id="Moniker" x="0px" y="0px" viewBox="0 0 60 24" style="enable-background:new 0 0 60 24;" xml:space="preserve">
<style type="text/css">
	.st0{fill:#FFFFFF;}
</style>
<g>
	<g>
		<path class="st0" d="M12.766,17.289c0-0.794-0.263-1.406-0.789-1.841c-0.526-0.433-1.469-0.891-2.83-1.376    c-2.845-0.897-4.953-1.858-6.324-2.884c-1.372-1.026-2.058-2.507-2.058-4.446c0-1.887,0.817-3.412,2.451-4.577    C4.851,1,6.925,0.417,9.441,0.417c2.496,0,4.54,0.641,6.133,1.925c1.592,1.283,2.363,2.937,2.311,4.956l-0.031,0.094h-5.072    c0-0.897-0.304-1.627-0.913-2.189C11.26,4.642,10.42,4.361,9.348,4.361c-1.051,0-1.876,0.232-2.475,0.696    C6.276,5.521,5.978,6.093,5.978,6.773c0,0.66,0.301,1.189,0.904,1.586c0.603,0.397,1.734,0.894,3.394,1.492    c2.558,0.762,4.483,1.701,5.777,2.815c1.293,1.113,1.94,2.644,1.94,4.593c0,1.98-0.771,3.529-2.312,4.647    c-1.54,1.118-3.585,1.678-6.131,1.678c-2.556,0-4.768-0.641-6.633-1.925c-1.867-1.284-2.774-3.132-2.722-5.544l0.031-0.093h5.088    c0,1.298,0.351,2.227,1.052,2.783c0.7,0.557,1.763,0.835,3.185,0.835c1.083,0,1.889-0.216,2.421-0.649    C12.501,18.557,12.766,17.99,12.766,17.289"></path>
		<polygon class="st0" points="54.673,0.566 46.759,23.39 47.555,23.39 51.705,23.39 59.808,0.566   "></polygon>
		<polygon class="st0" points="45.181,0.566 37.268,23.39 42.214,23.39 50.317,0.566   "></polygon>
		<path class="st0" d="M26.639,11.487h3.238c1.149,0,2.025-0.316,2.625-0.949c0.601-0.632,0.901-1.444,0.901-2.437    c0-1.014-0.3-1.844-0.901-2.493c-0.601-0.647-1.476-0.971-2.625-0.971h-3.238V11.487z M26.639,15.563v7.823h-5.314V0.561h8.552    c2.707,0,4.854,0.693,6.442,2.077c1.588,1.386,2.383,3.196,2.383,5.432c0,2.247-0.795,4.058-2.383,5.432    c-1.588,1.375-3.736,2.061-6.442,2.061H26.639z"></path>
	</g>
</g>
</svg>
