<svg id="b024c1f6-90f3-4dac-badd-ac69ef66793b" data-name="Icon" xmlns="http://www.w3.org/2000/svg" viewBox="0 0 112 112">
  <title>sp-icon-misc-shield-cog-code</title>
  <path d="M91.1,68.975V20.054c-26,10.453-35.1-5.1-35.1-5.1s-9.1,15.558-35.1,5.1V68.975S20.031,88.37,56,97.051C91.969,88.37,91.1,68.975,91.1,68.975Z" fill="none" stroke="#787a85" stroke-linecap="round" stroke-linejoin="round"/>
  <g>
    <path d="M51.634,42.174h-.312a3.917,3.917,0,0,0-3.917,3.916v7.12a3.916,3.916,0,0,1-4.152,3.91h0" fill="none" stroke="#787a85" stroke-linecap="round" stroke-linejoin="round"/>
    <path d="M51.634,72.066h-.312a3.917,3.917,0,0,1-3.917-3.917v-7.12a3.916,3.916,0,0,0-4.152-3.909h0" fill="none" stroke="#787a85" stroke-linecap="round" stroke-linejoin="round"/>
    <path d="M60.346,42.174h.312a3.917,3.917,0,0,1,3.917,3.916v7.12a3.917,3.917,0,0,0,4.152,3.91h0" fill="none" stroke="#787a85" stroke-linecap="round" stroke-linejoin="round"/>
    <path d="M60.346,72.066h.312a3.917,3.917,0,0,0,3.917-3.917v-7.12a3.917,3.917,0,0,1,4.152-3.909h0" fill="none" stroke="#787a85" stroke-linecap="round" stroke-linejoin="round"/>
    <path d="M55.157,60.182a1.469,1.469,0,0,1-.9-.489,1.735,1.735,0,0,1-.441-1.128,1.561,1.561,0,0,1,.495-1.172,1.6,1.6,0,0,1,1.143-.475,1.854,1.854,0,0,1,1.456.725,2.994,2.994,0,0,1,.613,1.991,4.691,4.691,0,0,1-.481,2.089A5.1,5.1,0,0,1,55.728,63.4a3.78,3.78,0,0,1-2.025.844m1.746-12.63a1.642,1.642,0,0,1-1.638-1.638,1.559,1.559,0,0,1,.49-1.162,1.63,1.63,0,0,1,2.3,0,1.638,1.638,0,0,1-1.152,2.8Z" fill="none" stroke="#ba3333" stroke-linecap="round" stroke-linejoin="round" stroke-width="2"/>
  </g>
  <path d="M80.632,53.256l-.424-2.532a1.035,1.035,0,0,0-.95-.861L76.88,49.7a.744.744,0,0,1-.638-.464l-.015-.035c-.061-.15-.129-.3-.193-.445-.111-.258-.218-.516-.339-.778l-.026,0a21.851,21.851,0,0,0-1.478-2.654l0,0c-.264-.385-.523-.747-.8-1.116a.744.744,0,0,1-.07-.786L74.409,41.3a1.033,1.033,0,0,0-.25-1.257l-1.952-1.666-1.953-1.667a1.033,1.033,0,0,0-1.281-.049l-1.927,1.4a.744.744,0,0,1-.787.054c-.407-.214-.806-.413-1.227-.612l-.012.013a21.518,21.518,0,0,0-2.844-1.06v-.02c-.45-.126-.881-.237-1.329-.342a.747.747,0,0,1-.559-.558l-.534-2.322a1.035,1.035,0,0,0-1-.8l-2.567-.021-2.567-.022a1.034,1.034,0,0,0-1.013.786l-.574,2.313a.746.746,0,0,1-.568.548c-.45.1-.883.2-1.335.32v.02a21.518,21.518,0,0,0-2.862,1.011l-.011-.013c-.425.193-.827.385-1.237.592a.747.747,0,0,1-.787-.068l-1.9-1.435a1.035,1.035,0,0,0-1.281.027l-3.961,3.267a1.036,1.036,0,0,0-.271,1.253l1.047,2.142a.743.743,0,0,1-.083.785c-.281.363-.546.721-.816,1.1l0,0a21.945,21.945,0,0,0-1.522,2.629l-.026-.005c-.125.26-.236.516-.351.772-.067.148-.138.293-.2.443l-.016.034a.746.746,0,0,1-.646.454l-2.381.123a1.037,1.037,0,0,0-.964.845l-.467,2.525-.467,2.524a1.034,1.034,0,0,0,.6,1.134l2.179.967a.746.746,0,0,1,.441.654c.018.46.045.905.083,1.37h.007a21.573,21.573,0,0,0,.521,2.992l-.024.013c.079.311.167.608.253.907.039.139.073.28.115.417a.747.747,0,0,1-.2.761l-1.744,1.624a1.035,1.035,0,0,0-.2,1.268l1.265,2.233,1.265,2.234a1.035,1.035,0,0,0,1.187.485l2.29-.66a.746.746,0,0,1,.759.218c.187.207.381.4.572.6.053.055.1.112.158.166.072.075.14.15.214.226l.019-.011a22.08,22.08,0,0,0,2.309,1.963l-.01.027c.154.11.306.208.458.313q.178.126.36.247c.1.071.207.146.314.215a.751.751,0,0,1,.335.716l-.292,2.365a1.033,1.033,0,0,0,.665,1.1l2.4.9,2.405.9a1.035,1.035,0,0,0,1.221-.392l1.33-1.978a.747.747,0,0,1,.722-.32c.147.02.3.033.441.05.13.016.261.032.393.046.176.018.349.043.529.06l.011-.029c.5.039,1,.085,1.512.089s1.012-.033,1.515-.064l.01.03c.181-.014.354-.036.53-.052.132-.011.263-.025.394-.038.146-.016.294-.026.441-.043a.745.745,0,0,1,.716.332l1.3,2a1.035,1.035,0,0,0,1.214.412l2.42-.857,2.42-.858a1.036,1.036,0,0,0,.683-1.085l-.252-2.37a.748.748,0,0,1,.346-.71c.108-.068.212-.141.318-.21.122-.079.244-.159.364-.24.153-.1.308-.2.463-.306l-.01-.027A21.833,21.833,0,0,0,71,73.225l.018.01c.076-.074.144-.148.218-.221.054-.054.106-.11.16-.164.195-.2.392-.391.583-.594a.746.746,0,0,1,.762-.206l2.279.7a1.035,1.035,0,0,0,1.195-.465l1.3-2.212,1.3-2.213a1.037,1.037,0,0,0-.174-1.27l-1.717-1.653a.747.747,0,0,1-.191-.764c.045-.137.081-.278.123-.417.091-.3.183-.592.268-.9l-.024-.015a21.725,21.725,0,0,0,.572-2.982h.006c.046-.464.081-.909.107-1.368a.746.746,0,0,1,.451-.647l2.195-.93a1.035,1.035,0,0,0,.617-1.124Z" fill="none" stroke="#ba3333" stroke-linecap="round" stroke-linejoin="round" stroke-width="2"/>
</svg>
